<svg width="317" height="317" viewBox="0 0 317 317" fill="none" xmlns="http://www.w3.org/2000/svg">
<path d="M310.271 113.119L301.711 113.52C305.712 127.193 308.728 144.025 308.728 158.413C308.728 178.708 304.755 198.388 296.917 216.921C289.347 234.815 278.508 250.895 264.703 264.708C250.896 278.508 234.82 289.348 216.921 296.921C198.392 304.748 178.707 308.721 158.413 308.721C138.119 308.721 118.433 304.748 99.9053 296.921C82.0067 289.348 65.9307 278.508 52.124 264.708C38.3173 250.895 27.48 234.815 19.908 216.921C12.072 198.388 8.09735 178.708 8.09735 158.413C8.09735 138.12 12.072 118.433 19.908 99.9054C27.48 82.0067 38.3173 65.9307 52.124 52.1241C65.9307 38.3174 82.0067 27.4787 99.9053 19.9094C118.433 12.0721 138.119 8.09737 158.413 8.09737C189.325 8.09737 219.017 17.4081 244.28 35.0214C267.335 51.0961 285.239 72.9721 296.339 98.5507H288.176H288.045H273.285H240.984H235.448V106.649H240.984H277.229H288.045H288.176H308.292L306.153 101.136C294.725 71.68 274.932 46.5214 248.912 28.3774C222.284 9.81205 190.989 4.32985e-05 158.413 4.32985e-05C137.029 4.32985e-05 116.283 4.18939 96.7507 12.4507C77.8853 20.4294 60.9453 31.852 46.3987 46.3987C31.8507 60.9454 20.4293 77.8867 12.4507 96.7494C4.18933 116.283 0 137.029 0 158.413C0 179.801 4.18933 200.548 12.4507 220.081C20.4293 238.935 31.8507 255.881 46.3987 270.428C60.9453 284.975 77.8853 296.401 96.7507 304.375C116.283 312.641 137.029 316.828 158.413 316.828C179.797 316.828 200.543 312.641 220.076 304.375C238.94 296.401 255.881 284.975 270.428 270.428C284.976 255.881 296.397 238.935 304.376 220.081C312.637 200.548 316.827 179.801 316.827 158.413C316.827 143.256 314.487 127.532 310.271 113.119" fill="url(#paint0_linear_5_6)"/>
<path d="M199.025 167.735C197.048 179.588 189.696 189.948 179.154 195.735C147.378 213.161 111.07 187.401 117.03 151.656C119.008 139.796 126.36 129.433 136.901 123.651C168.677 106.219 204.984 131.98 199.025 167.735ZM83.6185 177.308L95.3972 176.015C98.6652 205.681 125.364 227.081 155.029 223.815L156.326 235.588C120.213 239.561 87.5958 213.428 83.6185 177.308ZM90.3998 242.335C72.0171 227.601 60.4718 206.601 57.8932 183.175L67.7092 182.095C69.9998 202.895 80.2518 221.548 96.5758 234.628C112.9 247.721 133.344 253.668 154.138 251.375L155.22 261.188C131.802 263.775 108.782 257.068 90.3998 242.335ZM279.26 111.515H240.984V113.248C240.984 114.365 240.077 115.272 238.958 115.272H200.272C199.153 115.272 198.246 114.365 198.246 113.248V90.2828C198.246 89.1641 199.153 88.2574 200.272 88.2574H238.958C240.077 88.2574 240.984 89.1641 240.984 90.2828V92.9254H270.113C238.996 40.7161 173.18 13.8214 109.562 38.4627C66.4945 55.1414 29.4532 106.891 27.6265 153.039C23.7212 251.761 123.246 319.575 214.793 277.415C254.001 259.348 281.406 222.401 287.206 179.628C290.566 154.849 287.304 131.807 279.26 111.515Z" fill="url(#paint1_linear_5_6)"/>
<defs>
<linearGradient id="paint0_linear_5_6" x1="-130.306" y1="447.135" x2="457.206" y2="-140.377" gradientUnits="userSpaceOnUse">
<stop stop-color="#0B61E1"/>
<stop offset="0.305389" stop-color="#0F52FF"/>
<stop offset="0.652204" stop-color="#2A70D9"/>
<stop offset="1" stop-color="#3E3BC5"/>
</linearGradient>
<linearGradient id="paint1_linear_5_6" x1="-102.588" y1="421.681" x2="445.843" y2="-126.749" gradientUnits="userSpaceOnUse">
<stop stop-color="#2677F1"/>
<stop offset="0.305389" stop-color="#186EEF"/>
<stop offset="0.652204" stop-color="#0D4FF7"/>
<stop offset="1" stop-color="#1126E0"/>
</linearGradient>
</defs>
</svg>
