<svg width="263" height="289" viewBox="0 0 263 289" fill="none" xmlns="http://www.w3.org/2000/svg">
<path d="M208.53 182.376C201.724 182.376 196.205 176.856 196.205 170.056V118.565C196.205 111.756 201.724 106.239 208.53 106.239C215.34 106.239 220.857 111.756 220.857 118.565V170.056C220.857 176.856 215.34 182.376 208.53 182.376" fill="#385EE7"/>
<path d="M64.3941 204.496C71.2021 204.496 76.7208 198.976 76.7208 192.163V96.4534C76.7208 89.6441 71.2021 84.1268 64.3941 84.1268C57.5861 84.1268 52.0674 89.6441 52.0674 96.4534V192.163C52.0674 198.976 57.5861 204.496 64.3941 204.496Z" fill="#F539EE"/>
<path d="M12.6701 169.909H12.6714C19.4781 169.909 24.9981 164.389 24.9981 157.589V131.031C24.9981 124.221 19.4781 118.703 12.6714 118.703H12.6701C5.86339 118.703 0.344727 124.221 0.344727 131.031V157.589C0.344727 164.389 5.86339 169.909 12.6701 169.909" fill="#385EE7"/>
<path d="M146.472 176.896C146.472 181.616 142.645 185.443 137.924 185.443C133.203 185.443 129.376 181.616 129.376 176.896V108.704C129.376 103.983 133.203 100.156 137.924 100.156C142.645 100.156 146.472 103.983 146.472 108.704V176.896ZM159.253 41.9868H155.421C149.672 41.9868 145.011 46.6481 145.011 52.3974V72.3628C145.011 77.6974 140.685 82.0254 135.349 82.0254C130.012 82.0254 125.687 77.6974 125.687 72.3628V12.8481C125.687 6.12013 120.412 0.420129 113.685 0.248129C106.728 0.0694625 101.033 5.65345 101.033 12.5708V275.763C101.033 282.496 106.308 288.189 113.035 288.363C119.991 288.55 125.687 282.963 125.687 276.043V216.256C125.687 210.923 130.012 206.589 135.349 206.589C140.685 206.589 145.011 210.923 145.011 216.256V236.216C145.011 241.963 149.672 246.629 155.421 246.629H159.253C165.003 246.629 169.664 241.963 169.664 236.216V52.3974C169.664 46.6468 165.003 41.9868 159.253 41.9868Z" fill="#385EE7"/>
<path d="M262.719 144.308C262.719 150.683 257.549 155.856 251.171 155.856C244.793 155.856 239.622 150.683 239.622 144.308C239.622 137.929 244.793 132.759 251.171 132.759C257.549 132.759 262.719 137.929 262.719 144.308Z" fill="#385EE7"/>
</svg>
